# xmcd CD database file
#
# Track frame offsets:
#	150
#	9262
#	20120
#	31315
#	47177
#	58850
#	69660
#	81042
#	93105
#	107870
#	121582
#	131642
#
# Disc length: 2051 seconds
#
# Revision: 0
# Processed by: cddbd v1.5PL3 Copyright (c) Steve Scherf et al.
# Submitted via: CDex 1.51
#
DISCID=9808010c
DTITLE=Ralph Stanley II - Stanley Blues
DYEAR=2002
DGENRE=Country
TTITLE0=Stanley Blues
TTITLE1=We'll Be Sweethearts in Heaven
TTITLE2=When They Free Me from these Chains
TTITLE3=Daddy's Dinner Bucket
TTITLE4=Rby don't take your Love to Town
TTITLE5=Ship Gone Astray
TTITLE6=Jealousy
TTITLE7=Hommeward Bound
TTITLE8=Taylor Brooke
TTITLE9=Keep My Love with You
TTITLE10=Tennessee Truck Driving Man
TTITLE11=Four Horsemen
EXTD=YEAR: 2002
EXTT0=
EXTT1=
EXTT2=
EXTT3=
EXTT4=
EXTT5=
EXTT6=
EXTT7=
EXTT8=
EXTT9=
EXTT10=
EXTT11=
PLAYORDER=
